<?xml version="1.0" standalone="no"?>
<!DOCTYPE svg PUBLIC "-//W3C//DTD SVG 20010904//EN"
 "http://www.w3.org/TR/2001/REC-SVG-20010904/DTD/svg10.dtd">
<svg version="1.0" xmlns="http://www.w3.org/2000/svg"
 width="269.000000pt" height="269.000000pt" viewBox="0 0 269.000000 269.000000"
 preserveAspectRatio="xMidYMid meet">
<metadata>
Created by potrace 1.11, written by Peter Selinger 2001-2013
</metadata>
<g transform="translate(0.000000,269.000000) scale(0.100000,-0.100000)"
fill="#000000" stroke="none">
<path d="M1241 2579 c-284 -34 -551 -196 -708 -429 -46 -68 -88 -156 -119
-250 -26 -79 -28 -97 -28 -245 -1 -155 0 -163 32 -255 47 -137 100 -220 206
-325 89 -88 127 -114 331 -226 115 -63 208 -159 270 -278 97 -183 93 -183 550
31 193 90 364 170 381 177 47 19 94 72 101 114 4 29 -3 58 -38 139 -41 98 -43
109 -47 220 -3 99 0 137 24 255 61 296 25 513 -121 718 -87 123 -222 230 -366
291 -131 55 -323 81 -468 63z m182 -394 c200 -52 348 -214 378 -412 31 -209
-79 -421 -269 -516 -380 -190 -805 146 -707 561 22 93 60 159 134 233 127 126
301 177 464 134z"/>
<path d="M1175 2123 c-143 -51 -239 -145 -285 -278 -26 -77 -33 -145 -20 -215
41 -224 221 -375 445 -373 174 2 321 98 398 261 30 63 32 74 32 182 0 109 -2
119 -32 183 -44 93 -119 169 -211 215 -70 34 -83 37 -176 40 -77 2 -113 -2
-151 -15z m84 -57 c41 -22 61 -59 61 -112 0 -116 -132 -166 -209 -78 -89 101
29 251 148 190z m330 -91 c62 -53 62 -137 0 -190 -55 -45 -152 -27 -184 35
-44 85 12 180 107 180 35 0 54 -6 77 -25z m-483 -191 c102 -67 50 -224 -74
-224 -61 0 -122 60 -122 120 0 35 31 90 59 105 35 19 106 19 137 -1z m259 -29
c32 -31 32 -74 0 -109 -48 -52 -135 -19 -135 52 0 75 83 110 135 57z m254
-101 c87 -73 38 -214 -75 -214 -73 0 -124 49 -124 120 0 101 122 159 199 94z
m-303 -119 c60 -39 67 -134 15 -186 -98 -98 -259 19 -196 142 34 65 118 86
181 44z"/>
<path d="M1168 2014 c-51 -27 -49 -96 4 -119 37 -15 64 -9 83 18 20 28 19 60
-2 85 -25 28 -53 34 -85 16z"/>
<path d="M1465 1925 c-14 -13 -25 -33 -25 -45 0 -29 44 -70 75 -70 34 0 65 33
65 70 0 64 -70 91 -115 45z"/>
<path d="M992 1734 c-29 -20 -30 -76 -2 -104 42 -42 113 -11 113 50 0 58 -62
89 -111 54z"/>
<path d="M1495 1605 c-30 -30 -31 -54 -4 -89 40 -50 119 -21 119 44 0 64 -70
91 -115 45z"/>
<path d="M1213 1498 c-51 -24 -51 -90 1 -123 26 -17 62 -9 85 19 43 52 -24
134 -86 104z"/>
<path d="M1835 555 c-207 -97 -377 -183 -387 -195 -37 -45 -10 -100 48 -100
35 0 773 342 792 367 32 44 1 104 -54 102 -16 0 -195 -79 -399 -174z"/>
<path d="M1925 371 c-191 -89 -341 -165 -343 -173 -5 -25 21 -38 140 -69 112
-31 113 -31 173 -15 69 19 247 105 286 139 33 28 132 238 123 260 -3 10 -14
17 -23 17 -9 0 -169 -72 -356 -159z"/>
</g>
</svg>
